<svg width="30" height="30" viewBox="0 0 30 30" fill="none" xmlns="http://www.w3.org/2000/svg">
<path d="M8.75 14C8.19772 14 7.75 14.4477 7.75 15C7.75 15.5523 8.19772 16 8.75 16V14ZM26.25 16C26.8023 16 27.25 15.5523 27.25 15C27.25 14.4477 26.8023 14 26.25 14V16ZM8.75 16H26.25V14H8.75V16Z" fill="black"/>
<path d="M2.78481 14.7966L9.98501 9.65356C10.5145 9.27535 11.25 9.65385 11.25 10.3046V19.6954C11.25 20.3461 10.5145 20.7246 9.98501 20.3464L2.78481 15.2034C2.64522 15.1037 2.64522 14.8963 2.78481 14.7966Z" fill="black"/>
</svg>
