<svg width="20" height="20" viewBox="0 0 20 20" fill="none" xmlns="http://www.w3.org/2000/svg">
<path d="M16.1491 14.0942C14.8892 13.0292 14.1667 11.4725 14.1667 9.8233V7.5C14.1667 4.56757 11.9884 2.14005 9.16672 1.7334V0.833282C9.16672 0.372467 8.79333 0 8.33328 0C7.87338 0 7.5 0.372467 7.5 0.833282V1.7334C4.67743 2.14005 2.5 4.56757 2.5 7.5V9.8233C2.5 11.4725 1.7775 13.0292 0.509949 14.1008C0.185852 14.3784 0 14.7816 0 15.2083C0 16.0126 0.654144 16.6667 1.45828 16.6667H15.2083C16.0126 16.6667 16.6667 16.0126 16.6667 15.2083C16.6667 14.7816 16.4809 14.3784 16.1491 14.0942Z" fill="#CACACA"/>
<path d="M8.33328 20C9.84253 20 11.105 18.9241 11.395 17.5H5.27161C5.56168 18.9241 6.82419 20 8.33328 20Z" fill="#CACACA"/>
</svg>
