<svg width="14" height="20" viewBox="0 0 14 20" fill="none" xmlns="http://www.w3.org/2000/svg">
<path d="M12.2631 8.94737H3.57892V5C3.57892 3.11363 5.1136 1.57895 6.99997 1.57895C8.88634 1.57895 10.421 3.11363 10.421 5V6.57895C10.421 7.01495 10.7745 7.36842 11.2105 7.36842C11.6465 7.36842 12 7.01495 12 6.57895V5C12 2.243 9.75697 0 6.99997 0C4.24297 0 1.99997 2.243 1.99997 5V8.94737H1.73681C1.01013 8.94737 0.421021 9.53647 0.421021 10.2632V18.6842C0.421021 19.4109 1.01013 20 1.73681 20H12.2631C12.9898 20 13.5789 19.4109 13.5789 18.6842V10.2632C13.5789 9.53647 12.9898 8.94737 12.2631 8.94737ZM5.42102 13.4211C5.42102 12.549 6.12792 11.8421 6.99997 11.8421C7.87197 11.8421 8.57892 12.549 8.57892 13.4211C8.57892 14.0054 8.26128 14.5152 7.78944 14.7883V17.1053H6.21049V14.7883C5.73865 14.5152 5.42102 14.0054 5.42102 13.4211Z" fill="#DFE6E9"/>
</svg>
