<svg width="20" height="20" viewBox="0 0 20 20" fill="none" xmlns="http://www.w3.org/2000/svg">
<path d="M9.83223 7.13869C9.7623 7.09419 9.71291 7.02374 9.69492 6.94282C9.67694 6.86191 9.69183 6.77717 9.73633 6.70724C9.78082 6.63731 9.85128 6.58792 9.93219 6.56994C10.0131 6.55195 10.0978 6.56685 10.1678 6.61134L13.0375 8.43751H17.2491L9.82223 3.48626L9.3225 4.23587C9.27632 4.30435 9.2049 4.35175 9.12387 4.36773C9.04284 4.3837 8.95878 4.36695 8.89006 4.32113C8.82135 4.27531 8.77356 4.20416 8.75715 4.12321C8.74074 4.04226 8.75705 3.95812 8.8025 3.88915L9.30223 3.13959L6.65148 1.37244L5.14883 3.67029C5.55489 4.00791 5.82514 4.48101 5.90969 5.00229C5.99424 5.52357 5.88739 6.05784 5.60886 6.5065C5.33032 6.95516 4.89891 7.28794 4.39423 7.44342C3.88954 7.59889 3.34565 7.56658 2.86293 7.35244L2.22266 8.43751H11.8734L9.83223 7.13869ZM10.3613 5.45724C10.3834 5.42259 10.412 5.39261 10.4456 5.36904C10.4792 5.34546 10.5172 5.32874 10.5573 5.31983C10.5974 5.31093 10.6388 5.31001 10.6793 5.31713C10.7197 5.32425 10.7583 5.33928 10.793 5.36134L14.2305 7.54884C14.3004 7.59334 14.3498 7.66379 14.3678 7.7447C14.3858 7.82562 14.3709 7.91036 14.3264 7.98029C14.2819 8.05022 14.2114 8.09961 14.1305 8.11759C14.0496 8.13558 13.9649 8.12068 13.8949 8.07619L10.4574 5.88869C10.4228 5.86667 10.3928 5.83805 10.3692 5.80445C10.3457 5.77085 10.3289 5.73294 10.32 5.69287C10.3111 5.6528 10.3101 5.61137 10.3172 5.57094C10.3243 5.53051 10.3393 5.49188 10.3613 5.45724ZM7.4475 7.04837L6.8225 7.98587C6.79984 8.02026 6.77061 8.04982 6.73648 8.07287C6.70236 8.09592 6.66401 8.11199 6.62366 8.12017C6.5833 8.12835 6.54172 8.12848 6.50132 8.12054C6.46091 8.1126 6.42247 8.09675 6.38821 8.0739C6.35395 8.05106 6.32454 8.02167 6.30168 7.98742C6.27881 7.95318 6.26294 7.91475 6.25498 7.87435C6.24701 7.83395 6.24711 7.79237 6.25527 7.75201C6.26342 7.71165 6.27947 7.67329 6.3025 7.63915L6.9275 6.70165C6.97368 6.63318 7.0451 6.58578 7.12613 6.5698C7.20716 6.55383 7.29122 6.57058 7.35994 6.6164C7.42865 6.66222 7.47644 6.73337 7.49285 6.81432C7.50925 6.89526 7.49295 6.97941 7.4475 7.04837ZM8.6975 5.17337L8.0725 6.11087C8.04984 6.14526 8.02061 6.17482 7.98648 6.19787C7.95236 6.22092 7.91401 6.23699 7.87366 6.24517C7.8333 6.25335 7.79172 6.25348 7.75132 6.24554C7.71091 6.2376 7.67247 6.22175 7.63821 6.1989C7.60395 6.17606 7.57454 6.14667 7.55168 6.11242C7.52881 6.07818 7.51294 6.03975 7.50498 5.99935C7.49701 5.95895 7.49711 5.91737 7.50527 5.87701C7.51342 5.83665 7.52947 5.79829 7.5525 5.76415L8.1775 4.82665C8.20016 4.79227 8.22939 4.76271 8.26352 4.73966C8.29764 4.71661 8.33598 4.70054 8.37634 4.69236C8.4167 4.68418 8.45828 4.68405 8.49868 4.69199C8.53909 4.69993 8.57753 4.71578 8.61179 4.73862C8.64605 4.76147 8.67545 4.79086 8.69832 4.82511C8.72119 4.85935 8.73706 4.89778 8.74502 4.93818C8.75299 4.97858 8.75289 5.02016 8.74473 5.06052C8.73658 5.10088 8.72053 5.13924 8.6975 5.17337Z" fill="#DFE6E9"/>
<path d="M4.375 10.9375H12.8125V14.375H4.375V10.9375Z" fill="#DFE6E9"/>
<path d="M15.625 10C15.625 10.0829 15.5921 10.1624 15.5335 10.221C15.4749 10.2796 15.3954 10.3125 15.3125 10.3125C15.2296 10.3125 15.1501 10.2796 15.0915 10.221C15.0329 10.1624 15 10.0829 15 10V9.0625H1.25V11.5848C1.77064 11.66 2.24675 11.9202 2.59111 12.3179C2.93547 12.7155 3.12501 13.224 3.12501 13.75C3.12501 14.276 2.93547 14.7845 2.59111 15.1821C2.24675 15.5798 1.77064 15.84 1.25 15.9152V18.75H15V17.8125C15 17.7296 15.0329 17.6501 15.0915 17.5915C15.1501 17.5329 15.2296 17.5 15.3125 17.5C15.3954 17.5 15.4749 17.5329 15.5335 17.5915C15.5921 17.6501 15.625 17.7296 15.625 17.8125V18.75H18.75V15.9152C18.2294 15.84 17.7532 15.5798 17.4089 15.1821C17.0645 14.7845 16.875 14.276 16.875 13.75C16.875 13.224 17.0645 12.7155 17.4089 12.3179C17.7532 11.9202 18.2294 11.66 18.75 11.5848V9.0625H15.625V10ZM13.125 17.5H4.0625C3.97962 17.5 3.90013 17.4671 3.84153 17.4085C3.78292 17.3499 3.75 17.2704 3.75 17.1875C3.75 17.1046 3.78292 17.0251 3.84153 16.9665C3.90013 16.9079 3.97962 16.875 4.0625 16.875H13.125C13.2079 16.875 13.2874 16.9079 13.346 16.9665C13.4046 17.0251 13.4375 17.1046 13.4375 17.1875C13.4375 17.2704 13.4046 17.3499 13.346 17.4085C13.2874 17.4671 13.2079 17.5 13.125 17.5ZM13.125 16.25H4.0625C3.97962 16.25 3.90013 16.2171 3.84153 16.1585C3.78292 16.0999 3.75 16.0204 3.75 15.9375C3.75 15.8546 3.78292 15.7751 3.84153 15.7165C3.90013 15.6579 3.97962 15.625 4.0625 15.625H13.125C13.2079 15.625 13.2874 15.6579 13.346 15.7165C13.4046 15.7751 13.4375 15.8546 13.4375 15.9375C13.4375 16.0204 13.4046 16.0999 13.346 16.1585C13.2874 16.2171 13.2079 16.25 13.125 16.25ZM13.4375 14.6875C13.4375 14.7704 13.4046 14.8499 13.346 14.9085C13.2874 14.9671 13.2079 15 13.125 15H4.0625C3.97962 15 3.90013 14.9671 3.84153 14.9085C3.78292 14.8499 3.75 14.7704 3.75 14.6875V10.625C3.75 10.5421 3.78292 10.4626 3.84153 10.404C3.90013 10.3454 3.97962 10.3125 4.0625 10.3125H13.125C13.2079 10.3125 13.2874 10.3454 13.346 10.404C13.4046 10.4626 13.4375 10.5421 13.4375 10.625V14.6875ZM15.625 16.5625C15.625 16.6454 15.5921 16.7249 15.5335 16.7835C15.4749 16.8421 15.3954 16.875 15.3125 16.875C15.2296 16.875 15.1501 16.8421 15.0915 16.7835C15.0329 16.7249 15 16.6454 15 16.5625V15.625C15 15.5421 15.0329 15.4626 15.0915 15.404C15.1501 15.3454 15.2296 15.3125 15.3125 15.3125C15.3954 15.3125 15.4749 15.3454 15.5335 15.404C15.5921 15.4626 15.625 15.5421 15.625 15.625V16.5625ZM15.625 14.375C15.625 14.4579 15.5921 14.5374 15.5335 14.596C15.4749 14.6546 15.3954 14.6875 15.3125 14.6875C15.2296 14.6875 15.1501 14.6546 15.0915 14.596C15.0329 14.5374 15 14.4579 15 14.375V13.4375C15 13.3546 15.0329 13.2751 15.0915 13.2165C15.1501 13.1579 15.2296 13.125 15.3125 13.125C15.3954 13.125 15.4749 13.1579 15.5335 13.2165C15.5921 13.2751 15.625 13.3546 15.625 13.4375V14.375ZM15.625 12.1875C15.625 12.2704 15.5921 12.3499 15.5335 12.4085C15.4749 12.4671 15.3954 12.5 15.3125 12.5C15.2296 12.5 15.1501 12.4671 15.0915 12.4085C15.0329 12.3499 15 12.2704 15 12.1875V11.25C15 11.1671 15.0329 11.0876 15.0915 11.029C15.1501 10.9704 15.2296 10.9375 15.3125 10.9375C15.3954 10.9375 15.4749 10.9704 15.5335 11.029C15.5921 11.0876 15.625 11.1671 15.625 11.25V12.1875Z" fill="#DFE6E9"/>
</svg>
