<svg width="20" height="20" viewBox="0 0 20 20" fill="none" xmlns="http://www.w3.org/2000/svg">
<path d="M6.79688 17.9355V18.5348C6.7967 18.6297 6.81526 18.7237 6.85148 18.8115C6.88771 18.8992 6.94089 18.979 7.00799 19.0461C7.07508 19.1133 7.15476 19.1666 7.24248 19.2029C7.33019 19.2392 7.42421 19.2579 7.51914 19.2578H9.375V17.2265H7.51914C7.42496 17.2249 7.33139 17.242 7.24389 17.2769C7.15638 17.3118 7.0767 17.3637 7.00948 17.4297C6.94225 17.4957 6.88883 17.5744 6.85233 17.6613C6.81583 17.7481 6.79698 17.8413 6.79688 17.9355Z" fill="#DFE6E9"/>
<path d="M14.0234 15.5843C14.0216 16.2177 13.7685 16.8244 13.3198 17.2715C12.8711 17.7185 12.2633 17.9693 11.6299 17.9687H9.64844V18.5156H11.6299C12.4083 18.516 13.1551 18.2076 13.7063 17.658C14.2576 17.1084 14.5683 16.3626 14.5703 15.5843V14.0625H14.0234V15.5843Z" fill="#DFE6E9"/>
<path d="M12.7344 15.2205V12.1068C12.7361 11.9943 12.7153 11.8826 12.6731 11.7782C12.631 11.6739 12.5685 11.579 12.4892 11.4992C12.4098 11.4193 12.3154 11.3562 12.2113 11.3134C12.1072 11.2706 11.9956 11.2491 11.8831 11.25H10.7812V16.0938H11.8831C12.3627 16.0938 12.7344 15.7001 12.7344 15.2205Z" fill="#DFE6E9"/>
<path d="M14.0625 10.5143V13.0051C14.0599 13.079 14.0288 13.1492 13.9756 13.2007C13.9224 13.2522 13.8514 13.281 13.7773 13.2812H13.2812V13.8672H14.647L14.6498 10.4816C14.4679 10.5025 14.2851 10.5136 14.102 10.5149C14.0868 10.5149 14.0625 10.5144 14.0625 10.5143Z" fill="#DFE6E9"/>
<path d="M3.20312 12.1068V15.2294C3.20504 15.4593 3.29715 15.6793 3.45963 15.842C3.62211 16.0046 3.84197 16.097 4.07187 16.0992L5.15625 16.1076V11.25H4.07309C3.95958 11.2487 3.84694 11.2698 3.74165 11.3122C3.63636 11.3547 3.54052 11.4175 3.45964 11.4972C3.37876 11.5768 3.31446 11.6717 3.27043 11.7763C3.22641 11.8809 3.20353 11.9932 3.20312 12.1068Z" fill="#DFE6E9"/>
<path d="M1.875 13.0051V10.2205C1.875 6.86674 4.6091 4.13822 7.96285 4.13822C8.32899 4.13837 8.69438 4.17128 9.05465 4.23654C9.09877 4.04143 9.15428 3.84907 9.2209 3.66045C8.80792 3.58176 8.38845 3.54208 7.96805 3.54193C4.28547 3.54193 1.28906 6.53795 1.28906 10.2205V13.8672H2.65625V13.2812H2.15961C2.08564 13.281 2.01463 13.2521 1.96154 13.2006C1.90845 13.1491 1.87743 13.079 1.875 13.0051Z" fill="#DFE6E9"/>
<path d="M17.1135 5.15551L16.9661 5.11488C16.8627 5.08655 16.7672 5.03473 16.6871 4.96344C16.6069 4.89216 16.5444 4.80334 16.5042 4.70391C16.4939 4.67687 16.4758 4.65348 16.4523 4.63666C16.4287 4.61985 16.4007 4.61035 16.3718 4.60938H10.9375V5.04234L11.5141 5.28566C11.861 5.43355 12.2344 5.50914 12.6115 5.50781H13.9514C13.999 5.5081 14.0458 5.52076 14.0871 5.54455C14.1284 5.56834 14.1628 5.60244 14.1869 5.64353C14.2111 5.68461 14.2242 5.73125 14.2249 5.7789C14.2256 5.82655 14.2139 5.87357 14.191 5.91535L13.5755 7.03125H13.9336L15.1778 5.60156C15.2035 5.57208 15.2352 5.54846 15.2708 5.53229C15.3064 5.51611 15.345 5.50777 15.3841 5.50781H17.0668C17.1106 5.5084 17.1531 5.4929 17.1862 5.46425C17.2193 5.43561 17.2408 5.39581 17.2466 5.35239C17.2523 5.30897 17.242 5.26495 17.2174 5.22866C17.1929 5.19238 17.1559 5.16635 17.1135 5.15551Z" fill="#DFE6E9"/>
<path d="M11.0714 3.55469H10.9375V4.0625H11.3608L11.0714 3.55469Z" fill="#DFE6E9"/>
<path d="M14.0962 0.740051C13.1836 0.740051 12.2915 1.01066 11.5328 1.51765C10.774 2.02464 10.1826 2.74524 9.8334 3.58834C9.48418 4.43144 9.3928 5.35915 9.57084 6.25418C9.74887 7.1492 10.1883 7.97134 10.8336 8.61662C11.4789 9.26189 12.301 9.70133 13.196 9.87936C14.091 10.0574 15.0188 9.96602 15.8619 9.6168C16.705 9.26758 17.4256 8.67619 17.9326 7.91743C18.4395 7.15866 18.7101 6.2666 18.7101 5.35404C18.7088 4.13076 18.2222 2.95798 17.3572 2.09299C16.4922 1.228 15.3194 0.741437 14.0962 0.740051ZM17.7949 5.32923C17.7948 5.42468 17.7758 5.51916 17.7391 5.60728C17.7025 5.6954 17.6488 5.77543 17.5812 5.84279C17.5136 5.91016 17.4333 5.96355 17.3451 5.9999C17.2568 6.03625 17.1623 6.05486 17.0668 6.05466H15.5086L14.2644 7.48435C14.2387 7.51383 14.207 7.53745 14.1714 7.55363C14.1359 7.5698 14.0972 7.57814 14.0581 7.5781H13.1133C13.066 7.5785 13.0194 7.5665 12.9781 7.5433C12.9369 7.52009 12.9025 7.4865 12.8782 7.44585C12.854 7.4052 12.8408 7.35891 12.84 7.31159C12.8393 7.26428 12.8509 7.21758 12.8737 7.17615L13.4889 6.05466H12.6116C12.1609 6.05608 11.7146 5.96541 11.3002 5.78822L10.5597 5.47384C10.5102 5.45294 10.4678 5.41805 10.4378 5.37343C10.4077 5.32881 10.3914 5.27641 10.3907 5.22263V3.28032C10.3922 3.2072 10.4225 3.13762 10.475 3.08663C10.5274 3.03564 10.5978 3.00732 10.6709 3.00779H11.232C11.2802 3.00667 11.3279 3.01859 11.3699 3.04228C11.4119 3.06597 11.4468 3.10056 11.4708 3.1424L11.987 4.06247H16.3718C16.5099 4.06313 16.6445 4.10508 16.7585 4.18293C16.8725 4.26078 16.9606 4.37097 17.0114 4.49931C17.0196 4.52051 17.0324 4.53959 17.049 4.55515C17.0655 4.5707 17.0854 4.58232 17.107 4.58915L17.2544 4.62849C17.4092 4.66937 17.5461 4.76024 17.6438 4.88697C17.7416 5.0137 17.7947 5.16918 17.7949 5.32923Z" fill="#DFE6E9"/>
</svg>
